<svg width="46" height="42" viewBox="0 0 46 42" fill="none" xmlns="http://www.w3.org/2000/svg">
<path d="M23 0C10.2983 0 0 9.45849 0 21.1245C0 31.0231 7.42133 39.3056 17.4263 41.5977C17.319 41.3125 17.25 40.9815 17.25 40.5714V36.9608C16.3166 36.9608 14.7526 36.9608 14.3597 36.9608C12.7861 36.9608 11.3869 36.3394 10.7084 35.1846C9.95517 33.9013 9.82483 31.9385 7.958 30.7379C7.40408 30.3383 7.82575 29.8824 8.464 29.944C9.64275 30.2503 10.6202 30.9932 11.5402 32.0952C12.4564 33.1989 12.8877 33.4489 14.5992 33.4489C15.4292 33.4489 16.6712 33.4049 17.8403 33.2359C18.469 31.7695 19.5557 30.4193 20.884 29.782C13.225 29.0585 9.56992 25.5589 9.56992 20.8076C9.56992 18.7621 10.5187 16.7834 12.1306 15.1163C11.6016 13.4616 10.9365 10.0869 12.3338 8.80187C15.7799 8.80187 17.8633 10.8545 18.3636 11.409C20.0809 10.8686 21.9669 10.5622 23.9487 10.5622C25.9344 10.5622 27.8281 10.8686 29.5492 11.4125C30.0437 10.8615 32.1291 8.80187 35.5829 8.80187C36.9859 10.0887 36.3132 13.4774 35.7784 15.1287C37.3807 16.7922 38.3237 18.7656 38.3237 20.8076C38.3237 25.5554 34.6744 29.0532 27.0269 29.7803C29.1314 30.789 30.6667 33.6232 30.6667 35.7585V40.5714C30.6667 40.7544 30.6226 40.8865 30.5996 41.0431C39.5619 38.1579 46 30.3418 46 21.1245C46 9.45849 35.7017 0 23 0Z" fill="#03045E"/>
</svg>
