<svg width="44" height="40" viewBox="0 0 44 40" fill="none" xmlns="http://www.w3.org/2000/svg">
<path d="M39.1111 0H4.88889C2.18778 0 0 1.9784 0 4.42101V35.3681C0 37.8107 2.18778 39.7891 4.88889 39.7891H39.1111C41.8122 39.7891 44 37.8107 44 35.3681V4.42101C44 1.9784 41.8122 0 39.1111 0ZM14.6667 30.9471H8.49933V15.4735H14.6667V30.9471ZM11.4742 12.6374C9.58956 12.6374 8.33067 11.5013 8.33067 9.98485C8.33067 8.46844 9.58711 7.33224 11.682 7.33224C13.5667 7.33224 14.8256 8.46844 14.8256 9.98485C14.8256 11.5013 13.5691 12.6374 11.4742 12.6374ZM36.6667 30.9471H30.6973V22.4897C30.6973 20.1509 29.106 19.6116 28.5096 19.6116C27.9131 19.6116 25.9233 19.9719 25.9233 22.4897C25.9233 22.85 25.9233 30.9471 25.9233 30.9471H19.756V15.4735H25.9233V17.6332C26.7178 16.3732 28.3091 15.4735 31.2938 15.4735C34.2784 15.4735 36.6667 17.6332 36.6667 22.4897V30.9471Z" fill="#03045E"/>
</svg>
