<svg width="600" height="611" viewBox="0 0 600 611" fill="none" xmlns="http://www.w3.org/2000/svg">
<path d="M573.5 426C575.433 426 577 425.328 577 424.5C577 423.672 575.433 423 573.5 423C571.567 423 570 423.672 570 424.5C570 425.328 571.567 426 573.5 426Z" fill="#F2F2F2"/>
<path d="M300 611C465.685 611 600 474.223 600 305.5C600 136.777 465.685 0 300 0C134.315 0 0 136.777 0 305.5C0 474.223 134.315 611 300 611Z" fill="#E6E7FF"/>
<path d="M15 150.351C15 189.885 39.5927 221.876 69.9845 221.876L15 150.351Z" fill="#2F2E41"/>
<path d="M69.9845 221.876C69.9845 181.769 96.3988 149.315 129.042 149.315L69.9845 221.876Z" fill="#5E60CE"/>
<path d="M35.3646 153.461C35.3646 191.276 50.8489 221.876 69.9844 221.876L35.3646 153.461Z" fill="#5E60CE"/>
<path d="M69.9845 221.876C69.9845 170.883 100.953 129.62 139.224 129.62L69.9845 221.876Z" fill="#2F2E41"/>
<path d="M57.7657 222.916C57.7657 222.916 65.4277 222.68 67.7369 221.031C70.046 219.383 79.523 217.415 80.0959 220.058C80.6687 222.702 91.6105 233.206 82.9601 233.276C74.3097 233.346 62.8604 231.925 60.5557 230.518C58.2509 229.111 57.7657 222.916 57.7657 222.916Z" fill="#A8A8A8"/>
<path opacity="0.2" d="M83.1162 232.264C74.4652 232.341 63.0151 230.779 60.7102 229.232C58.955 228.054 58.2555 223.826 58.0215 221.876C57.8594 221.884 57.7657 221.887 57.7657 221.887C57.7657 221.887 58.251 228.697 60.5559 230.244C62.8607 231.791 74.3108 233.352 82.9619 233.276C85.4591 233.253 86.3216 232.274 86.2743 230.824C85.9273 231.7 84.9749 232.247 83.1162 232.264Z" fill="black"/>
<path d="M114.787 353.522C166.523 353.522 208.464 347.721 208.464 340.565C208.464 333.409 166.523 327.608 114.787 327.608C63.0501 327.608 21.1094 333.409 21.1094 340.565C21.1094 347.721 63.0501 353.522 114.787 353.522Z" fill="#3F3D56"/>
<path opacity="0.1" d="M114.787 351.449C158.088 351.449 193.19 346.344 193.19 340.047C193.19 333.749 158.088 328.644 114.787 328.644C71.4854 328.644 36.3828 333.749 36.3828 340.047C36.3828 346.344 71.4854 351.449 114.787 351.449Z" fill="black"/>
<path d="M434.6 419.75C512.486 419.75 575.625 410.932 575.625 400.054C575.625 389.177 512.486 380.359 434.6 380.359C356.714 380.359 293.575 389.177 293.575 400.054C293.575 410.932 356.714 419.75 434.6 419.75Z" fill="#3F3D56"/>
<path d="M170.28 464.437C217.237 464.437 255.302 459.1 255.302 452.516C255.302 445.933 217.237 440.596 170.28 440.596C123.324 440.596 85.2579 445.933 85.2579 452.516C85.2579 459.1 123.324 464.437 170.28 464.437Z" fill="#3F3D56"/>
<path d="M247.755 382.742C292.6 394.477 378.803 367.436 388.27 336.823" stroke="#2F2E41" stroke-width="2" stroke-miterlimit="10"/>
<path d="M169.771 256.691C169.771 256.691 234.807 238.415 238.809 297.303C242.812 356.191 185.28 372.944 230.305 384.62" stroke="#2F2E41" stroke-width="2" stroke-miterlimit="10"/>
<path d="M107.659 397.867C107.659 397.867 125.831 392.356 126.949 410.116C128.067 427.876 111.992 432.928 124.573 436.449" stroke="#2F2E41" stroke-width="2" stroke-miterlimit="10"/>
<path d="M404.854 350.815L400.917 376.603C400.917 376.603 381.535 387.167 395.163 387.477C408.791 387.788 472.993 387.477 472.993 387.477C472.993 387.477 485.409 387.477 465.725 376.292L461.788 349.262L404.854 350.815Z" fill="#2F2E41"/>
<path opacity="0.1" d="M392.417 386.518C395.513 383.744 400.913 380.852 400.913 380.852L404.85 355.526L461.787 355.58L465.724 380.547C470.315 383.109 473.158 385.073 474.822 386.579C477.35 385.998 480.113 383.838 465.724 375.808L461.787 349.262L404.85 350.787L400.913 376.113C400.913 376.113 384.626 384.832 392.417 386.518Z" fill="black"/>
<path d="M553.33 173.042H313.833C308.831 173.042 304.775 177.118 304.775 182.146V344.304C304.775 349.332 308.831 353.408 313.833 353.408H553.33C558.333 353.408 562.388 349.332 562.388 344.304V182.146C562.388 177.118 558.333 173.042 553.33 173.042Z" fill="#2F2E41"/>
<path d="M553.224 181.335H313.94V318.164H553.224V181.335Z" fill="#3F3D56"/>
<path d="M433.582 179.261C434.425 179.261 435.109 178.565 435.109 177.707C435.109 176.848 434.425 176.152 433.582 176.152C432.738 176.152 432.054 176.848 432.054 177.707C432.054 178.565 432.738 179.261 433.582 179.261Z" fill="#F2F2F2"/>
<path d="M562.388 328.53V344.318C562.388 345.511 562.154 346.694 561.699 347.796C561.243 348.899 560.576 349.902 559.735 350.746C558.894 351.59 557.896 352.26 556.797 352.716C555.698 353.173 554.52 353.408 553.33 353.408H313.833C312.643 353.408 311.466 353.173 310.367 352.716C309.268 352.26 308.269 351.59 307.428 350.746C306.587 349.902 305.92 348.899 305.465 347.796C305.009 346.694 304.775 345.511 304.775 344.318V328.53H562.388Z" fill="#2F2E41"/>
<path d="M500.276 403.344V406.274H338.377V403.93L338.6 403.344L342.59 392.798H496.965L500.276 403.344Z" fill="#2F2E41"/>
<path d="M540.126 458.236C539.842 459.547 538.772 460.931 536.353 462.239C527.672 466.934 510.023 460.987 510.023 460.987C510.023 460.987 496.424 458.483 496.424 451.91C496.806 451.628 497.204 451.372 497.616 451.144C501.265 449.055 513.365 443.901 534.82 451.362C536.401 451.899 537.813 452.899 538.899 454.253C539.768 455.354 540.45 456.75 540.126 458.236Z" fill="#2F2E41"/>
<path opacity="0.1" d="M540.123 457.89C529.201 462.152 519.466 462.471 509.475 455.403C504.437 451.84 499.859 450.959 496.424 451.025C500.175 449.004 512.614 444.016 534.67 451.237C536.294 451.756 537.746 452.725 538.862 454.035C539.756 455.1 540.456 456.452 540.123 457.89Z" fill="black"/>
<path d="M433.582 348.225C436.675 348.225 439.182 345.44 439.182 342.006C439.182 338.571 436.675 335.786 433.582 335.786C430.489 335.786 427.981 338.571 427.981 342.006C427.981 345.44 430.489 348.225 433.582 348.225Z" fill="#F2F2F2"/>
<path opacity="0.1" d="M500.276 403.164V406.274H338.377V403.786L338.6 403.164H500.276Z" fill="black"/>
<path d="M172.826 205.29H69.9845V327.608H172.826V205.29Z" fill="#2F2E41"/>
<path d="M183.008 192.851H58.7839V236.388H183.008V192.851Z" fill="#3F3D56"/>
<path d="M183.008 244.681H58.7839V288.217H183.008V244.681Z" fill="#3F3D56"/>
<path d="M183.008 296.51H58.7839V340.047H183.008V296.51Z" fill="#3F3D56"/>
<path opacity="0.4" d="M158.571 200.108H151.443V209.437H158.571V200.108Z" fill="#5E60CE"/>
<path opacity="0.8" d="M169.771 200.108H162.643V209.437H169.771V200.108Z" fill="#5E60CE"/>
<path d="M180.972 200.108H173.844V209.437H180.972V200.108Z" fill="#5E60CE"/>
<path opacity="0.4" d="M158.571 251.937H151.443V260.23H158.571V251.937Z" fill="#5E60CE"/>
<path opacity="0.8" d="M169.771 251.937H162.643V260.23H169.771V251.937Z" fill="#5E60CE"/>
<path d="M180.972 251.937H173.844V260.23H180.972V251.937Z" fill="#5E60CE"/>
<path opacity="0.4" d="M158.571 303.766H151.443V312.059H158.571V303.766Z" fill="#5E60CE"/>
<path opacity="0.8" d="M169.771 303.766H162.643V312.059H169.771V303.766Z" fill="#5E60CE"/>
<path d="M180.972 303.766H173.844V312.059H180.972V303.766Z" fill="#5E60CE"/>
<path d="M172.317 438.523C193.967 438.523 211.519 420.423 211.519 398.096C211.519 375.768 193.967 357.669 172.317 357.669C150.666 357.669 133.115 375.768 133.115 398.096C133.115 420.423 150.666 438.523 172.317 438.523Z" fill="#2F2E41"/>
<path d="M167.735 430.23H155.516V451.998H167.735V430.23Z" fill="#2F2E41"/>
<path d="M191.154 430.23H178.935V451.998H191.154V430.23Z" fill="#2F2E41"/>
<path d="M165.189 456.144C170.531 456.144 174.862 454.288 174.862 451.998C174.862 449.708 170.531 447.852 165.189 447.852C159.847 447.852 155.516 449.708 155.516 451.998C155.516 454.288 159.847 456.144 165.189 456.144Z" fill="#2F2E41"/>
<path d="M189.117 456.144C194.741 456.144 199.3 454.288 199.3 451.998C199.3 449.708 194.741 447.852 189.117 447.852C183.494 447.852 178.935 449.708 178.935 451.998C178.935 454.288 183.494 456.144 189.117 456.144Z" fill="#2F2E41"/>
<path d="M174.353 402.242C181.383 402.242 187.081 395.977 187.081 388.248C187.081 380.519 181.383 374.254 174.353 374.254C167.324 374.254 161.625 380.519 161.625 388.248C161.625 395.977 167.324 402.242 174.353 402.242Z" fill="white"/>
<path d="M174.353 391.876C176.884 391.876 178.935 389.788 178.935 387.211C178.935 384.635 176.884 382.547 174.353 382.547C171.822 382.547 169.771 384.635 169.771 387.211C169.771 389.788 171.822 391.876 174.353 391.876Z" fill="#3F3D56"/>
<path d="M134.725 359.736C131.491 345.389 141.828 330.891 157.812 327.355C173.796 323.819 189.375 332.583 192.609 346.931C195.843 361.278 185.249 366.57 169.265 370.106C153.281 373.642 137.959 374.084 134.725 359.736Z" fill="#5E60CE"/>
<path d="M210.214 390.078C220.234 385.712 227.266 379.576 225.92 376.374C224.573 373.171 215.359 374.115 205.338 378.481C195.317 382.847 188.285 388.983 189.632 392.185C190.978 395.388 200.193 394.444 210.214 390.078Z" fill="#2F2E41"/>
<path d="M136.266 417.037C146.287 412.671 153.318 406.535 151.972 403.332C150.626 400.13 141.411 401.073 131.39 405.439C121.369 409.806 114.338 415.941 115.684 419.144C117.03 422.346 126.245 421.403 136.266 417.037Z" fill="#2F2E41"/>
<path d="M196.245 410.013C196.245 413.673 186.229 420.9 175.114 420.9C163.999 420.9 153.479 414.147 153.479 410.487C153.479 406.827 163.999 407.647 175.114 407.647C186.229 407.647 196.245 406.353 196.245 410.013Z" fill="white"/>
<path d="M323.309 516.35L339.134 485.152L343.405 487.709L325.319 517.628L323.309 516.35Z" fill="#3F3D56"/>
<path d="M314.141 523.126C314.141 523.126 317.058 525.459 317.389 520.467C317.431 519.675 317.635 518.9 317.987 518.191C318.339 517.483 318.832 516.857 319.435 516.353C320.756 515.279 322.656 514.544 324.942 515.966C326.977 517.232 327.435 519.067 327.323 520.703C327.223 521.875 326.845 523.005 326.223 523.996C325.6 524.988 324.751 525.81 323.747 526.394C321.48 527.764 317.9 528.796 314.141 525.428C314.141 525.428 311.88 522.87 314.141 523.126Z" fill="#5E60CE"/>
<path d="M342.123 449.234C345.489 449.234 348.218 446.455 348.218 443.028C348.218 439.601 345.489 436.823 342.123 436.823C338.756 436.823 336.027 439.601 336.027 443.028C336.027 446.455 338.756 449.234 342.123 449.234Z" fill="#A0616A"/>
<path d="M338.915 445.968C338.915 445.968 340.519 454.459 339.877 456.092C339.235 457.725 348.86 455.439 348.86 455.439C348.86 455.439 346.935 446.947 347.256 444.988C347.577 443.028 338.915 445.968 338.915 445.968Z" fill="#A0616A"/>
<path d="M328.328 475.361L328.969 484.179L332.154 498.028L333.14 501.816L334.744 495.937L333.14 482.547L332.595 476.518L328.328 475.361Z" fill="#A0616A"/>
<path d="M362.013 474.055V483.2C362.013 483.2 361.051 494.957 359.126 497.897C357.201 500.836 356.559 486.139 356.559 486.139L358.068 475.361L362.013 474.055Z" fill="#A0616A"/>
<path d="M333.461 502.469C333.461 502.469 331.857 504.429 333.14 524.351C334.423 544.274 332.498 558.644 336.669 558.644C336.669 558.644 335.386 562.89 338.915 563.216C342.444 563.543 344.048 563.869 344.369 562.89C344.689 561.91 345.331 557.337 344.369 557.337C344.369 557.337 344.369 558.644 345.01 553.418C345.652 548.193 345.652 523.371 347.256 520.105L352.389 532.189C352.389 532.189 352.389 537.742 353.351 540.354C354.314 542.967 355.918 557.991 355.918 557.991L355.597 560.277C355.597 560.277 363.297 561.583 363.617 560.277C363.938 558.97 363.938 557.011 363.617 556.358C363.297 555.704 363.297 555.704 363.938 554.398C364.58 553.092 364.58 552.112 364.259 551.132C363.938 550.152 363.938 528.923 363.938 528.923C363.938 528.923 363.297 503.122 359.447 501.816C355.597 500.509 333.461 502.469 333.461 502.469Z" fill="#2F2E41"/>
<path d="M337.631 560.603L335.065 565.176C335.065 565.176 331.055 563.706 331.857 567.462C338.754 567.952 343.566 567.299 343.566 567.299C343.566 567.299 345.171 567.952 345.491 566.972C345.812 565.992 344.689 562.563 343.727 562.563C342.764 562.563 337.631 560.603 337.631 560.603Z" fill="#2F2E41"/>
<path d="M356.239 559.297C356.239 559.297 353.672 565.176 354.635 565.502C355.597 565.829 364.259 567.135 364.901 567.462C365.542 567.789 368.75 568.115 369.071 566.156C369.392 564.196 367.467 563.543 367.467 563.543C367.467 563.543 363.938 562.89 362.976 559.624C362.013 556.358 356.239 559.297 356.239 559.297Z" fill="#2F2E41"/>
<path d="M349.502 454.459C349.502 454.459 340.84 452.826 338.915 454.459C336.99 456.092 328.969 459.358 328.969 460.991C328.969 462.624 333.14 478.627 333.14 478.627C333.14 478.627 330.894 502.796 333.14 503.449C335.386 504.102 339.236 502.142 343.727 504.429C348.218 506.715 361.051 502.469 361.051 502.469C361.051 502.469 356.239 481.567 357.522 477.648C358.805 473.728 359.768 460.338 359.768 460.338C359.768 460.338 354.314 454.459 349.502 454.459Z" fill="#8985A8"/>
<path d="M331.215 460.011L328.969 460.665C328.969 460.665 324.157 476.015 326.082 476.668C328.007 477.321 333.461 478.627 334.102 478.627C334.744 478.627 331.215 460.011 331.215 460.011Z" fill="#8985A8"/>
<path d="M354.635 458.378L359.768 460.338C359.768 460.338 366.505 473.075 364.901 474.708C363.297 476.341 356.239 477.974 356.239 477.974L354.635 458.378Z" fill="#8985A8"/>
<path d="M341.938 435.364C341.431 435.27 340.91 435.294 340.413 435.432C340.015 435.612 339.649 435.856 339.329 436.156C338.749 436.627 338.129 437.045 337.476 437.406C336.957 437.693 336.398 437.959 336.035 438.434C335.863 438.675 335.726 438.939 335.628 439.218C335.003 440.844 334.835 442.614 335.143 444.332C335.177 444.576 335.25 444.813 335.356 445.034C335.69 445.659 336.426 445.906 337.047 446.234C338.225 446.856 339.117 447.904 340.083 448.83C340.442 449.195 340.846 449.511 341.283 449.772C342.662 450.537 344.346 450.287 345.893 450.017C346.003 450.016 346.111 449.994 346.212 449.951C346.314 449.908 346.405 449.845 346.482 449.766C346.559 449.686 346.62 449.592 346.662 449.489C346.703 449.385 346.723 449.274 346.722 449.163L347.944 443.571C348.165 442.743 348.27 441.887 348.257 441.028C348.171 439.671 347.449 437.791 346.471 436.827C345.331 435.703 343.428 435.524 341.938 435.364Z" fill="#2F2E41"/>
<path d="M316.904 567.366C321.759 567.366 325.696 567.137 325.696 566.854C325.696 566.572 321.759 566.343 316.904 566.343C312.048 566.343 308.112 566.572 308.112 566.854C308.112 567.137 312.048 567.366 316.904 567.366Z" fill="#5E60CE"/>
<path d="M314.894 568.389C319.75 568.389 323.686 568.16 323.686 567.877C323.686 567.595 319.75 567.366 314.894 567.366C310.039 567.366 306.103 567.595 306.103 567.877C306.103 568.16 310.039 568.389 314.894 568.389Z" fill="#5E60CE"/>
<path d="M306.103 565.086C308.739 565.086 310.875 564.962 310.875 564.809C310.875 564.655 308.739 564.531 306.103 564.531C303.467 564.531 301.33 564.655 301.33 564.809C301.33 564.962 303.467 565.086 306.103 565.086Z" fill="#5E60CE"/>
<path d="M323.184 571.224C325.82 571.224 327.956 571.099 327.956 570.946C327.956 570.793 325.82 570.668 323.184 570.668C320.548 570.668 318.411 570.793 318.411 570.946C318.411 571.099 320.548 571.224 323.184 571.224Z" fill="#5E60CE"/>
<path d="M417.57 181L398.222 255.497L519.515 292.842L538.864 218.345L417.57 181Z" fill="#E6E7FF"/>
<path d="M481.943 228.271C480.319 227.936 478.649 227.979 477.041 228.397C477.509 226.647 477.627 224.808 477.388 223.004C475.732 223.657 474.234 224.709 473.006 226.083C472.621 224.212 471.851 222.462 470.754 220.962C469.683 222.362 468.899 223.996 468.456 225.753C467.287 224.481 465.885 223.492 464.341 222.851C464.341 222.851 463.609 226.902 465.371 230.226C466.938 233.185 469.95 234.569 470.594 234.838L470.609 234.858L470.617 234.848C470.682 234.875 470.719 234.889 470.719 234.889C470.719 234.889 470.733 234.811 470.752 234.672C470.764 234.657 470.775 234.641 470.788 234.623C470.791 234.645 470.793 234.666 470.795 234.685C470.745 234.815 470.719 234.889 470.719 234.889C470.719 234.889 470.757 234.898 470.826 234.912L470.828 234.925L470.85 234.917C471.528 235.055 474.76 235.593 477.518 233.966C480.617 232.139 481.943 228.271 481.943 228.271Z" fill="#6C63FF"/>
<path d="M475.931 217.923C477.374 217.923 478.543 216.65 478.543 215.079C478.543 213.508 477.374 212.235 475.931 212.235C474.489 212.235 473.319 213.508 473.319 215.079C473.319 216.65 474.489 217.923 475.931 217.923Z" fill="#6C63FF"/>
<path d="M508.726 252.001L430.234 227.834L429.751 229.693L508.243 253.86L508.726 252.001Z" fill="#6C63FF"/>
<path d="M448.708 243.524L435.175 239.357L431.348 254.092L444.881 258.259L448.708 243.524Z" fill="#6C63FF"/>
<path d="M473.841 251.262L460.308 247.096L456.481 261.83L470.014 265.997L473.841 251.262Z" fill="#6C63FF"/>
<path d="M498.974 259L485.441 254.834L481.614 269.568L495.147 273.735L498.974 259Z" fill="#6C63FF"/>
<path d="M442.376 260.67L432.323 257.575L431.995 258.838L442.048 261.933L442.376 260.67Z" fill="#6C63FF"/>
<path d="M467.509 268.408L457.456 265.313L457.128 266.576L467.181 269.671L467.509 268.408Z" fill="#6C63FF"/>
<path d="M492.642 276.146L482.589 273.051L482.261 274.314L492.314 277.409L492.642 276.146Z" fill="#6C63FF"/>
<path d="M381.235 284.326C418.368 284.326 448.471 283.115 448.471 281.62C448.471 280.125 418.368 278.913 381.235 278.913C344.102 278.913 314 280.125 314 281.62C314 283.115 344.102 284.326 381.235 284.326Z" fill="#D0CDE1"/>
<path d="M500.679 315C529.575 315 553 313.788 553 312.294C553 310.799 529.575 309.587 500.679 309.587C471.784 309.587 448.359 310.799 448.359 312.294C448.359 313.788 471.784 315 500.679 315Z" fill="#D0CDE1"/>
<path d="M475.018 291.286H490.113V298.159H481.331V305.032H490.113V311.904H475.018V291.286ZM493.132 291.286H508.227V297.262H499.444V298.457H508.227V312.203H493.132V305.927H501.915V304.732H493.132V291.286H493.132ZM511.246 291.286H526.341V297.262H517.558V298.457H526.341V312.203H511.246V305.927H520.028V304.732H511.246V291.286H511.246Z" fill="#E6E7FF"/>
<path d="M343.093 259.839H349.32V266.537H355.017V259.839H361.244V280.123H355.017V273.331H349.321V280.123H343.094V259.839H343.093ZM369.432 266.566H363.951V259.839H381.145V266.566H375.66V280.123H369.433V266.566H369.432ZM383.873 259.839H390.366L394.36 266.966L398.35 259.839H404.846V280.123H398.644V270.069L394.36 277.281H394.253L389.966 270.069V280.123H383.873V259.839ZM407.945 259.839H414.174V273.418H422.93V280.123H407.944V259.839H407.945Z" fill="#E6E7FF"/>
</svg>
